<!DOCTYPE svg PUBLIC "-//W3C//DTD SVG 1.1//EN" "http://www.w3.org/Graphics/SVG/1.1/DTD/svg11.dtd">
<!-- Uploaded to: SVG Repo, www.svgrepo.com, Transformed by: SVG Repo Mixer Tools -->
<svg fill="#6b6b6b" height="800px" width="800px" version="1.1" id="Capa_1" xmlns="http://www.w3.org/2000/svg" xmlns:xlink="http://www.w3.org/1999/xlink" viewBox="0 0 389.49 389.49" xml:space="preserve" stroke="#6b6b6b" transform="rotate(45)">
<g id="SVGRepo_bgCarrier" stroke-width="0"/>
<g id="SVGRepo_tracerCarrier" stroke-linecap="round" stroke-linejoin="round" stroke="#CCCCCC" stroke-width="9.34776"> <path d="M326.34,219.49l-90-62v-27l-23.033-43.71C207.575,3.201,194.745,0,194.745,0s-12.83,3.201-18.563,86.78l-23.033,43.71v27 l-90,62v51l86.143,24.971c-0.041,0.285-0.07,0.574-0.07,0.868v28.158l-20.171,1.659v36l24.325,8.929l24.675-8.929v-18.753 l2.977,0.939c6.115,42.206,13.717,45.158,13.717,45.158s7.602-2.952,13.717-45.158l2.977-0.939v18.753l24.675,8.929l24.325-8.929 v-36l-20.171-1.659v-28.158c0-0.294-0.028-0.583-0.07-0.868l86.143-24.971V219.49z M93.15,247.951v-12.698l64.086-44.148 l0.068,75.444L93.15,247.951z M182.8,332.308l-21.577-6.801v-24.778l21.577-6.801V332.308z M228.268,325.507l-21.577,6.801v-38.38 l21.577,6.801V325.507z M296.34,247.951l-64.154,18.598l0.068-75.444l64.086,44.148V247.951z"/> </g>
<g id="SVGRepo_iconCarrier"> <path d="M326.34,219.49l-90-62v-27l-23.033-43.71C207.575,3.201,194.745,0,194.745,0s-12.83,3.201-18.563,86.78l-23.033,43.71v27 l-90,62v51l86.143,24.971c-0.041,0.285-0.07,0.574-0.07,0.868v28.158l-20.171,1.659v36l24.325,8.929l24.675-8.929v-18.753 l2.977,0.939c6.115,42.206,13.717,45.158,13.717,45.158s7.602-2.952,13.717-45.158l2.977-0.939v18.753l24.675,8.929l24.325-8.929 v-36l-20.171-1.659v-28.158c0-0.294-0.028-0.583-0.07-0.868l86.143-24.971V219.49z M93.15,247.951v-12.698l64.086-44.148 l0.068,75.444L93.15,247.951z M182.8,332.308l-21.577-6.801v-24.778l21.577-6.801V332.308z M228.268,325.507l-21.577,6.801v-38.38 l21.577,6.801V325.507z M296.34,247.951l-64.154,18.598l0.068-75.444l64.086,44.148V247.951z"/> </g>
</svg>